<svg width="89" height="113" fill="none" xmlns="http://www.w3.org/2000/svg"><g id="Group 1"><g id="Mask group"><g id="Union" filter="url('#filter0_d_20_20')"><path fill-rule="evenodd" clip-rule="evenodd" d="M73.01 53.958v28.05L50.916 96.06c-1.864 1.185-2.663 3.79-1.784 5.817.878 2.027 3.101 2.709 4.965 1.523l24.133-15.35a4.027 4.027 0 0 0 2.778-3.824V53.793l-.696-33.672a3.976 3.976 0 0 0-3.396-3.855L53.583.989c-1.848-1.21-4.076-.556-4.976 1.462-.9 2.017-.13 4.634 1.718 5.844l22.04 14.43.645 31.233Zm-60.293-2.53V23.925L41.57 9.165a3.898 3.898 0 0 0 1.664-5.344 4.104 4.104 0 0 0-5.458-1.7L8.424 17.137a3.997 3.997 0 0 0-3.707 3.987v30.401l.001.052.865 33.672a4.003 4.003 0 0 0 4.192 3.895l28.647 15.085a4.105 4.105 0 0 0 5.479-1.634 3.897 3.897 0 0 0-1.6-5.362L13.505 82.07l-.787-30.641Z" fill="#03F263"/></g></g><path fill-rule="evenodd" clip-rule="evenodd" d="m46.913 12-7.842 16.817 5.478 17.83 7.842-16.817L46.913 12Zm12.052 39.227-7.843 16.817.001.003c1.217 3.96-.89 8.477-4.705 10.09-2.188.926-4.463.695-6.235-.418a7.5 7.5 0 0 1-5.225-10.505l.18-.386-5.477-17.83-4.209 9.025c-4.668 10.01-.337 21.91 9.674 26.579a19.95 19.95 0 0 0 16.285.276c8.548-5.09 12.983-15.98 10.019-25.627l-2.465-8.024Z" fill="#FF6B00" fill-opacity=".91" id="Intersect" style="mix-blend-mode:darken"/></g><defs><filter id="filter0_d_20_20" x=".717" y=".381" width="84.293" height="112.314" filterUnits="userSpaceOnUse" color-interpolation-filters="sRGB"><feFlood flood-opacity="0" result="BackgroundImageFix"/><feColorMatrix in="SourceAlpha" values="0 0 0 0 0 0 0 0 0 0 0 0 0 0 0 0 0 0 127 0" result="hardAlpha"/><feOffset dy="4"/><feGaussianBlur stdDeviation="2"/><feComposite in2="hardAlpha" operator="out"/><feColorMatrix values="0 0 0 0 0 0 0 0 0 0 0 0 0 0 0 0 0 0 0.25 0"/><feBlend in2="BackgroundImageFix" result="effect1_dropShadow_20_20"/><feBlend in="SourceGraphic" in2="effect1_dropShadow_20_20" result="shape"/></filter></defs></svg>